<?xml version="1.0" standalone="no"?>
<!DOCTYPE svg PUBLIC "-//W3C//DTD SVG 20010904//EN"
 "http://www.w3.org/TR/2001/REC-SVG-20010904/DTD/svg10.dtd">
<svg version="1.0" xmlns="http://www.w3.org/2000/svg"
 width="256.000000pt" height="256.000000pt" viewBox="0 0 256.000000 256.000000"
 preserveAspectRatio="xMidYMid meet">
<metadata>
Created by potrace 1.11, written by Peter Selinger 2001-2013
</metadata>
<g transform="translate(0.000000,256.000000) scale(0.100000,-0.100000)"
fill="#000000" stroke="none">
<path d="M926 2008 c-2 -7 -15 -72 -30 -143 -85 -429 -261 -769 -546 -1056
-99 -99 -144 -136 -260 -213 l-84 -56 1274 0 1275 0 -55 34 c-186 116 -374
299 -503 488 -38 56 -77 115 -86 132 -67 119 -84 152 -116 231 -56 135 -112
317 -131 422 -3 18 -11 63 -18 100 l-12 68 -352 3 c-277 2 -353 0 -356 -10z
m626 -198 c19 -99 60 -247 89 -325 11 -30 20 -58 20 -62 1 -5 4 -12 9 -18 4
-5 15 -26 23 -46 15 -36 14 -38 -15 -73 -16 -20 -33 -36 -36 -36 -4 0 -45 47
-92 105 -46 58 -86 105 -89 105 -3 -1 -35 -37 -71 -82 -36 -44 -75 -92 -88
-107 l-22 -26 -21 25 c-11 14 -30 36 -42 50 -12 14 -42 51 -67 82 -25 31 -48
57 -51 58 -4 0 -44 -47 -90 -105 -46 -58 -88 -105 -94 -105 -5 0 -22 17 -36
37 l-26 37 33 77 c47 110 90 250 114 370 11 57 23 110 25 117 4 10 60 12 257
10 l253 -3 17 -85z"/>
</g>
</svg>
