<?xml version="1.0" standalone="no"?>
<!DOCTYPE svg PUBLIC "-//W3C//DTD SVG 20010904//EN"
 "http://www.w3.org/TR/2001/REC-SVG-20010904/DTD/svg10.dtd">
<svg version="1.0" xmlns="http://www.w3.org/2000/svg"
 width="192.000000pt" height="192.000000pt" viewBox="0 0 192.000000 192.000000"
 preserveAspectRatio="xMidYMid meet">
<metadata>
Created by potrace 1.11, written by Peter Selinger 2001-2013
</metadata>
<g transform="translate(0.000000,192.000000) scale(0.100000,-0.100000)"
fill="#000000" stroke="none">
<path d="M696 1512 c-2 -4 -10 -39 -16 -78 -33 -194 -112 -407 -213 -569 -96
-156 -260 -328 -386 -407 -39 -23 -70 -46 -71 -50 0 -5 429 -8 953 -8 842 1
950 3 932 16 -11 8 -57 42 -103 76 -284 210 -478 545 -555 958 l-12 65 -262 3
c-144 1 -264 -1 -267 -6z m474 -188 c21 -94 63 -223 94 -296 15 -34 14 -37 -5
-62 -11 -14 -23 -26 -27 -26 -4 0 -36 36 -71 80 -35 44 -65 80 -66 80 -1 0
-30 -36 -65 -80 -35 -44 -66 -80 -70 -80 -5 0 -88 97 -126 148 -9 12 -23 -1
-75 -67 -35 -44 -67 -81 -71 -81 -4 0 -16 12 -27 26 -19 25 -20 28 -5 62 31
73 73 202 94 296 l22 96 188 0 188 0 22 -96z"/>
</g>
</svg>
