<?xml version="1.0" standalone="no"?>
<!DOCTYPE svg PUBLIC "-//W3C//DTD SVG 20010904//EN"
 "http://www.w3.org/TR/2001/REC-SVG-20010904/DTD/svg10.dtd">
<svg version="1.0" xmlns="http://www.w3.org/2000/svg"
 width="192.000000pt" height="192.000000pt" viewBox="0 0 192.000000 192.000000"
 preserveAspectRatio="xMidYMid meet">

<g transform="translate(0.000000,192.000000) scale(0.100000,-0.100000)"
fill="#000000" stroke="none">
<path d="M677 1408 c-36 -210 -138 -455 -264 -630 -78 -109 -222 -252 -319
-316 l-78 -52 943 0 943 0 -53 36 c-312 210 -539 571 -606 962 l-18 102 -265
0 -265 0 -18 -102z m479 -5 c26 -120 57 -233 88 -315 l37 -98 -23 -31 -23 -31
-45 53 c-25 29 -57 66 -71 83 l-26 29 -64 -81 c-35 -44 -66 -81 -69 -81 -3 0
-34 36 -69 81 l-65 80 -25 -29 c-15 -16 -46 -53 -71 -82 l-45 -53 -23 31 -23
31 37 98 c31 82 62 195 88 315 l6 27 190 0 190 0 6 -27z"/>
</g>
</svg>
