<?xml version="1.0" standalone="no"?>
<!DOCTYPE svg PUBLIC "-//W3C//DTD SVG 20010904//EN"
 "http://www.w3.org/TR/2001/REC-SVG-20010904/DTD/svg10.dtd">
<svg version="1.0" xmlns="http://www.w3.org/2000/svg"
 width="2004.000000pt" height="524.000000pt" viewBox="0 0 2004.000000 524.000000"
 preserveAspectRatio="xMidYMid meet">

<g transform="translate(0.000000,524.000000) scale(0.100000,-0.100000)"
fill="#000000" stroke="none">
<path d="M1917 4121 c-18 -6 -27 -23 -27 -54 0 -24 -30 -194 -58 -337 -25
-121 -99 -382 -159 -560 -95 -281 -250 -604 -403 -840 -314 -486 -710 -890
-1110 -1136 -113 -69 -105 -63 -98 -69 6 -7 5100 -7 5106 0 6 6 10 3 -58 45
-156 97 -372 264 -503 390 -243 232 -458 488 -597 710 -29 47 -65 103 -79 125
-36 56 -143 252 -196 362 -120 245 -270 694 -327 973 -28 143 -58 313 -58 337
0 15 -4 34 -8 41 -7 10 -158 13 -710 15 -386 1 -708 0 -715 -2z m1220 -233 c6
-7 15 -35 21 -63 6 -27 18 -86 27 -130 62 -301 158 -615 261 -854 30 -69 54
-128 54 -132 0 -15 -123 -159 -136 -159 -16 0 -45 32 -144 155 -138 170 -212
257 -228 262 -9 4 -23 -3 -34 -18 -167 -211 -326 -399 -338 -399 -8 0 -49 41
-90 91 -41 51 -82 100 -90 109 -8 10 -40 49 -70 86 -30 37 -71 86 -91 107
l-35 40 -80 -98 c-43 -53 -90 -112 -104 -130 -43 -55 -138 -171 -155 -189 -9
-9 -22 -16 -30 -16 -12 0 -135 145 -135 159 0 4 24 63 54 132 103 239 199 553
261 854 9 44 21 103 27 130 6 28 15 56 21 63 7 9 123 12 517 12 394 0 510 -3
517 -12z"/>
<path d="M10490 2850 l0 -850 140 0 140 0 0 398 c0 259 4 411 11 437 24 87
129 145 239 132 105 -13 170 -73 190 -176 6 -30 10 -214 10 -422 l0 -369 135
0 135 0 0 413 c0 444 -5 495 -54 603 -35 76 -104 146 -179 180 -56 26 -72 29
-167 29 -94 0 -110 -3 -156 -27 -54 -29 -105 -73 -142 -123 l-21 -30 -1 328 0
327 -140 0 -140 0 0 -850z"/>
<path d="M11820 3565 l0 -135 140 0 140 0 0 135 0 135 -140 0 -140 0 0 -135z"/>
<path d="M14180 2850 l0 -850 140 0 139 0 3 75 3 75 35 -47 c20 -27 58 -59 90
-77 53 -30 60 -31 170 -31 104 0 121 3 172 27 106 49 176 143 215 288 25 95
25 505 -1 599 -47 173 -136 271 -279 307 -137 36 -264 -1 -356 -102 l-51 -56
0 321 0 321 -140 0 -140 0 0 -850z m562 120 c49 -14 93 -52 121 -104 21 -39
22 -53 22 -256 0 -204 -1 -217 -23 -261 -35 -71 -87 -103 -178 -107 -113 -6
-180 34 -212 127 -8 22 -12 109 -12 245 0 184 3 216 19 251 43 94 149 136 263
105z"/>
<path d="M15480 3053 c2 -749 6 -840 47 -915 53 -98 142 -138 305 -138 l98 0
0 129 0 129 -62 4 c-51 4 -65 9 -85 32 l-23 27 0 690 0 689 -140 0 -141 0 1
-647z"/>
<path d="M9740 3390 l0 -180 -60 0 -60 0 0 -120 0 -120 60 0 60 0 0 -157 c0
-173 8 -472 15 -570 5 -73 39 -148 85 -186 47 -40 119 -57 242 -57 l108 0 0
130 0 130 -64 0 c-58 0 -67 3 -85 26 -20 26 -21 38 -21 355 l0 329 85 0 85 0
0 120 0 120 -85 0 -85 0 0 180 0 180 -140 0 -140 0 0 -180z"/>
<path d="M5440 3224 c-62 -11 -169 -57 -215 -92 -63 -48 -118 -126 -147 -211
-22 -62 -23 -81 -23 -316 1 -233 2 -254 23 -309 58 -156 161 -250 319 -291 69
-18 226 -20 303 -4 178 37 310 171 352 354 20 92 18 442 -4 522 -47 172 -146
278 -307 330 -45 14 -252 26 -301 17z m197 -269 c65 -19 116 -70 138 -135 14
-41 16 -82 13 -232 -3 -180 -4 -184 -31 -231 -41 -69 -91 -99 -177 -105 -83
-6 -140 12 -189 60 -61 59 -66 82 -66 298 0 183 1 198 22 237 55 102 168 144
290 108z"/>
<path d="M6873 3216 c-62 -20 -106 -51 -162 -112 l-51 -56 0 81 0 81 -140 0
-140 0 0 -605 0 -605 139 0 140 0 3 418 3 418 28 42 c48 73 159 109 257 82 57
-15 124 -80 139 -135 7 -26 11 -176 11 -432 l0 -393 140 0 139 0 3 413 c3 411
3 412 26 453 81 140 308 135 385 -9 22 -41 22 -49 25 -449 l3 -408 140 0 141
0 -5 423 c-4 345 -7 433 -21 485 -50 195 -174 307 -355 319 -93 7 -166 -12
-237 -59 -43 -30 -111 -104 -140 -153 -9 -16 -14 -12 -42 37 -36 64 -96 117
-167 149 -63 27 -201 35 -262 15z"/>
<path d="M8725 3215 c-87 -18 -201 -74 -248 -123 l-36 -37 92 -76 92 -77 28
20 c88 63 272 83 354 40 23 -12 53 -37 67 -55 24 -32 46 -109 46 -163 l0 -24
-172 0 c-289 -1 -394 -25 -478 -110 -65 -64 -85 -125 -85 -255 0 -123 21 -190
78 -253 73 -79 169 -112 320 -113 140 0 221 23 296 86 l31 27 0 -35 c0 -67 -1
-67 136 -67 l124 0 0 419 c0 239 -4 441 -10 471 -29 155 -119 255 -276 311
-78 28 -259 35 -359 14z m395 -802 c0 -107 -17 -147 -75 -177 -35 -18 -58 -21
-175 -21 -117 0 -140 3 -169 20 -89 52 -94 193 -9 245 30 18 50 20 231 20
l197 0 0 -87z"/>
<path d="M12913 3212 c-69 -25 -115 -57 -160 -115 l-38 -48 -3 81 -3 80 -139
0 -140 0 0 -605 0 -605 140 0 139 0 3 418 3 418 28 42 c40 61 95 87 187 87
127 0 198 -57 220 -174 6 -30 10 -214 10 -422 l0 -369 135 0 135 0 0 413 c0
444 -5 495 -54 603 -35 76 -104 146 -178 179 -82 37 -208 45 -285 17z"/>
<path d="M16540 3224 c-98 -19 -186 -61 -247 -117 -59 -55 -87 -99 -120 -194
-26 -75 -27 -86 -28 -293 0 -236 7 -283 57 -387 55 -114 175 -205 306 -232 76
-16 238 -14 305 4 163 42 267 141 323 305 17 48 19 87 19 295 0 226 -1 244
-24 313 -45 137 -131 227 -266 278 -58 22 -90 27 -185 29 -63 2 -126 1 -140
-1z m180 -265 c73 -16 132 -74 155 -152 26 -89 18 -364 -11 -428 -43 -93 -119
-135 -232 -127 -85 6 -139 38 -179 105 l-28 48 0 205 c0 198 1 206 24 247 28
49 69 81 125 99 52 16 82 17 146 3z"/>
<path d="M17744 3221 c-141 -36 -243 -156 -279 -328 -18 -84 -20 -455 -4 -552
23 -130 109 -265 199 -311 86 -44 228 -55 318 -26 54 18 125 73 152 118 l17
28 6 -67 c14 -143 -22 -238 -109 -289 -38 -23 -63 -29 -130 -32 -71 -4 -89 -1
-135 20 -30 14 -68 38 -86 55 l-32 30 -88 -79 c-48 -43 -89 -83 -91 -88 -6
-18 87 -99 148 -130 78 -39 172 -60 275 -60 258 0 424 112 503 339 14 40 16
132 19 704 l4 657 -134 0 -134 0 -7 -31 c-3 -17 -6 -49 -6 -70 l0 -38 -55 55
c-74 74 -128 97 -235 100 -47 2 -99 -1 -116 -5z m323 -273 c26 -17 49 -45 64
-75 23 -46 24 -57 24 -269 l0 -221 -30 -48 c-40 -65 -97 -95 -179 -95 -73 0
-131 24 -168 68 -47 56 -53 91 -53 307 1 223 6 245 70 309 44 44 81 56 166 53
52 -2 75 -8 106 -29z"/>
<path d="M11820 2605 l0 -605 140 0 140 0 0 605 0 605 -140 0 -140 0 0 -605z"/>
</g>
</svg>
